<svg width="333" height="370" viewBox="0 0 333 370" fill="none" xmlns="http://www.w3.org/2000/svg">
<g clip-path="url(#clip0_133_494)">
<g filter="url(#filter0_d_133_494)">
<path d="M315.065 88.9859L267.166 79.2158V89.5087L313.421 98.945L314.486 99.0504C318.985 99.0504 322.643 102.648 322.643 107.068V262.032H10.3566V107.068C10.3566 102.648 14.015 99.0504 18.5181 99.0504H19.0601L65.834 89.4252V79.1279L17.9309 88.9859C7.99439 89.289 0 97.2844 0 107.068V351.91C0 361.886 8.30603 370 18.5181 370H314.486C324.694 370 333 361.886 333 351.91V107.068C333 97.2844 325.01 89.289 315.065 88.9859Z" fill="url(#paint0_linear_133_494)"/>
<path d="M305 127.606L290.91 150.299L305 175.613C305 175.613 279.349 172.121 172.605 172.121C65.8673 172.121 34 175.613 34 175.613L50.0253 150.299L34 127.606C34 127.606 65.684 121.493 172.605 121.493C279.533 121.493 305 127.606 305 127.606Z" fill="url(#paint1_linear_133_494)"/>
<path d="M98.8458 303.071C97.0437 303.071 94.8622 302.122 93.1323 300.769L89.4513 305.083C92.0799 307.385 95.6164 308.483 98.6967 308.483C104.785 308.483 108.24 304.899 108.24 300.879C108.24 297.589 106.515 295.541 103.471 294.373L100.499 293.24C98.2812 292.396 96.8901 291.996 96.8901 290.863C96.8901 289.804 97.8702 289.255 99.4465 289.255C101.253 289.255 102.68 289.839 104.333 290.973L107.567 287.023C105.314 284.866 102.229 283.843 99.4465 283.843C94.1124 283.843 90.3501 287.168 90.3501 291.227C90.3501 294.663 92.6445 296.82 95.2777 297.848L98.3174 299.087C100.386 299.891 101.628 300.255 101.628 301.389C101.628 302.452 100.801 303.071 98.8458 303.071Z" fill="white"/>
<path d="M122.752 308.483C125.909 308.483 128.728 307.315 130.796 304.973L127.413 301.024C126.361 302.122 124.857 303.071 122.978 303.071C119.821 303.071 117.716 300.589 117.716 296.126C117.716 291.812 120.196 289.255 123.055 289.255C124.708 289.255 125.909 289.984 127.111 291.008L130.494 286.988C128.764 285.306 126.135 283.843 122.901 283.843C116.741 283.843 111.099 288.376 111.099 296.345C111.099 304.459 116.515 308.483 122.752 308.483Z" fill="white"/>
<path d="M140.642 289.257H142.973C145.529 289.257 146.884 289.916 146.884 291.959C146.884 294.01 145.529 295.104 142.973 295.104H140.642V289.257ZM140.642 300.077H143.131L147.336 308.046H154.549L149.238 298.812C151.613 297.564 153.199 295.355 153.199 291.959C153.199 286.041 148.687 284.284 143.425 284.284H134.179V308.046H140.642" fill="white"/>
<path d="M174.02 302.783H164.323V298.54H172.295V293.277H164.323V289.547H173.645V284.284H157.86V308.046H174.02" fill="white"/>
<path d="M194.918 302.783H185.226V298.54H193.193V293.277H185.226V289.547H194.544V284.284H178.758V308.046H194.918" fill="white"/>
<path d="M205.822 301.171C205.822 298.25 205.298 294.814 204.995 292.108H205.144L207.475 297.406L212.89 308.046H219.502V284.284H213.337V291.159C213.337 294.081 213.866 297.665 214.168 300.222H214.015L211.684 294.885L206.273 284.284H199.656V308.046H205.822" fill="white"/>
<path d="M241.078 302.783H231.381V298.54H239.353V293.277H231.381V289.547H240.703V284.284H224.918V308.046H241.078" fill="white"/>
<path d="M252.279 303.003V289.327H252.659C256.191 289.327 258.973 290.5 258.973 296.053C258.973 301.61 256.191 303.003 252.659 303.003H252.279ZM265.585 296.053C265.585 287.649 260.472 284.284 253.034 284.284H245.816V308.046H253.408C260.472 308.046 265.585 304.461 265.585 296.053Z" fill="white"/>
<path d="M287.233 303.137C286.42 303.515 285.607 303.73 284.835 303.73C282.879 303.73 281.673 302.707 281.673 301.244C281.673 300.413 282.116 299.702 282.816 299.034C284.099 300.479 285.603 301.872 287.233 303.137ZM283.742 290.274C283.742 288.741 284.645 287.937 285.661 287.937C286.601 287.937 287.089 288.447 287.089 289.475C287.089 290.867 285.964 291.79 284.419 292.646C283.995 291.821 283.742 291.017 283.742 290.274ZM284.008 308.483C287.143 308.483 289.767 307.609 291.894 306.168C294.067 307.315 296.312 308.128 298.439 308.483L299.943 303.436C298.76 303.304 297.355 302.834 295.874 302.162C297.703 299.728 298.995 297.149 299.866 294.373H294.004C293.435 296.429 292.509 298.169 291.384 299.627C289.808 298.559 288.317 297.351 287.071 296.104C289.559 294.5 291.976 292.589 291.976 289.475C291.976 286.039 289.419 283.843 285.508 283.843C281.149 283.843 278.444 286.843 278.444 290.274C278.444 291.715 278.972 293.332 279.894 294.992C277.572 296.381 275.589 298.27 275.589 301.608C275.589 305.193 278.331 308.483 284.008 308.483Z" fill="white"/>
<path d="M92.2245 330.265L92.7032 328.266C93.4349 325.516 94.1666 322.05 94.8035 319.12H94.9887C95.7158 322.006 96.4475 325.516 97.1792 328.266L97.658 330.265H92.2245ZM90.332 313.439L81.2943 342.297H89.3293L90.8018 336.169H99.0807L100.558 342.297H108.864L99.8259 313.439" fill="white"/>
<path d="M121.921 327.111H119.089V319.475H121.736C124.749 319.475 126.483 320.451 126.483 323.029C126.483 325.604 125.024 327.111 121.921 327.111ZM122.102 313.439H111.239V342.297H119.089V333.151H122.287C128.493 333.151 134.152 330.089 134.152 323.029C134.152 315.746 128.583 313.439 122.102 313.439Z" fill="white"/>
<path d="M149.671 327.111H146.839V319.475H149.491C152.503 319.475 154.237 320.451 154.237 323.029C154.237 325.604 152.779 327.111 149.671 327.111ZM149.856 313.439H138.994V342.297H146.839V333.151H150.037C156.247 333.151 161.907 330.089 161.907 323.029C161.907 315.746 156.338 313.439 149.856 313.439Z" fill="white"/>
<path d="M174.598 319.475H177.426C180.529 319.475 182.173 320.275 182.173 322.761C182.173 325.248 180.529 326.579 177.426 326.579H174.598V319.475ZM189.842 322.761C189.842 315.566 184.363 313.439 177.972 313.439H166.744V342.297H174.598V332.619H177.611L182.719 342.297H191.486L185.032 331.082C187.918 329.566 189.842 326.882 189.842 322.761Z" fill="white"/>
<path d="M208.008 336.258C204.448 336.258 202.258 332.976 202.258 327.735C202.258 322.494 204.448 319.476 208.008 319.476C211.571 319.476 213.762 322.494 213.762 327.735C213.762 332.976 211.571 336.258 208.008 336.258ZM208.008 312.904C199.792 312.904 194.223 318.233 194.223 327.735C194.223 337.237 199.792 342.83 208.008 342.83C216.223 342.83 221.792 337.237 221.792 327.735C221.792 318.277 216.223 312.904 208.008 312.904Z" fill="white"/>
<path d="M238.865 326.047C238.088 329.109 237.496 332.084 236.674 335.194H236.494C235.672 332.084 235.125 329.109 234.303 326.047L231.196 313.439H222.89L231.656 342.297H241.15L249.913 313.439H241.878" fill="white"/>
<path d="M260.138 330.752H269.813V324.361H260.138V319.831H271.457V313.439H252.284V342.297H271.917V335.901H260.138" fill="white"/>
<path d="M285.973 336.169H285.517V319.563H285.973C290.264 319.563 293.642 320.987 293.642 327.734C293.642 334.482 290.264 336.169 285.973 336.169ZM286.429 313.439H277.667V342.297H286.885C295.467 342.297 301.677 337.944 301.677 327.734C301.677 317.521 295.467 313.439 286.429 313.439Z" fill="white"/>
<path d="M45.7622 334.46C44.5879 334.46 43.4407 334.069 42.5148 333.34L30.7084 324.048C28.4952 322.3 28.152 319.141 29.9451 316.984C31.7381 314.832 34.9901 314.493 37.2078 316.242L44.2988 321.825L60.956 293.587C62.3788 291.184 65.5314 290.354 68.0065 291.733C70.477 293.112 71.3307 296.183 69.9125 298.586L50.2381 331.938C49.4884 333.212 48.1966 334.104 46.7107 334.372C46.3945 334.429 46.0784 334.46 45.7622 334.46Z" fill="white"/>
</g>
<path d="M80.4 215.588H86.16L81.96 245.028H76.2L78.76 227.068L71.24 245.028H65.76L66.56 226.988L59.88 245.028H56.68L66.84 217.548C64.7867 218.242 63.2133 219.362 62.12 220.908C61.0267 222.455 60.48 224.335 60.48 226.548C60.48 227.082 60.5067 227.548 60.56 227.948C60.64 228.322 60.76 228.668 60.92 228.988C60.9733 229.095 61 229.175 61 229.228C61.0267 229.255 61.04 229.282 61.04 229.308C59.6 229.308 58.52 229.015 57.8 228.428C57.1067 227.815 56.76 226.895 56.76 225.668C56.76 224.388 57.1467 223.095 57.92 221.788C58.72 220.455 59.8133 219.242 61.2 218.148C62.4533 217.162 63.8 216.402 65.24 215.868C66.68 215.308 68.0933 215.028 69.48 215.028C69.9867 215.028 70.4933 215.082 71 215.188C71.5333 215.268 72.04 215.402 72.52 215.588L71.6 236.668L80.4 215.588ZM100.164 228.508C100.164 230.722 99.2577 232.655 97.4444 234.308C95.631 235.935 93.471 236.815 90.9644 236.948C90.9377 237.402 90.911 237.748 90.8844 237.988C90.8844 238.202 90.8844 238.388 90.8844 238.548C90.8844 239.775 91.0844 240.642 91.4844 241.148C91.911 241.655 92.671 241.908 93.7644 241.908C95.0177 241.908 96.1644 241.628 97.2044 241.068C98.271 240.482 99.4844 239.415 100.844 237.868H102.204C100.658 240.375 98.9777 242.242 97.1644 243.468C95.351 244.668 93.3644 245.268 91.2044 245.268C89.151 245.268 87.591 244.735 86.5244 243.668C85.4844 242.602 84.9644 241.015 84.9644 238.908C84.9644 237.388 85.2044 235.775 85.6844 234.068C86.1644 232.362 86.8044 230.842 87.6044 229.508C88.591 227.908 89.7644 226.708 91.1244 225.908C92.511 225.082 94.0577 224.668 95.7644 224.668C97.231 224.668 98.3244 224.988 99.0444 225.628C99.791 226.242 100.164 227.202 100.164 228.508ZM96.0844 226.788C95.1777 226.788 94.2577 227.602 93.3244 229.228C92.4177 230.828 91.7377 232.762 91.2844 235.028C92.831 234.922 94.1777 234.215 95.3244 232.908C96.4977 231.575 97.0844 230.082 97.0844 228.428C97.0844 227.868 97.0044 227.455 96.8444 227.188C96.6844 226.922 96.431 226.788 96.0844 226.788ZM106.47 238.268C106.47 239.308 106.617 240.095 106.91 240.628C107.204 241.135 107.724 241.388 108.47 241.388C109.137 241.388 109.79 241.082 110.43 240.468C111.07 239.828 111.51 239.028 111.75 238.068V237.868L113.71 228.708C113.63 228.282 113.444 227.948 113.15 227.708C112.884 227.442 112.524 227.308 112.07 227.308C110.604 227.308 109.297 228.535 108.15 230.988C107.03 233.442 106.47 235.868 106.47 238.268ZM114.07 226.868V227.028L116.03 217.828L121.95 217.028L117.35 238.628C117.297 238.868 117.257 239.095 117.23 239.308C117.204 239.495 117.19 239.695 117.19 239.908C117.19 240.442 117.31 240.828 117.55 241.068C117.817 241.282 118.244 241.388 118.83 241.388C119.524 241.388 120.15 241.082 120.71 240.468C121.27 239.855 121.724 238.988 122.07 237.868H123.75C122.924 240.242 121.844 242.028 120.51 243.228C119.204 244.428 117.604 245.028 115.71 245.028C114.617 245.028 113.724 244.735 113.03 244.148C112.364 243.535 111.95 242.682 111.79 241.588C110.99 242.815 110.097 243.735 109.11 244.348C108.124 244.962 107.044 245.268 105.87 245.268C104.217 245.268 102.91 244.708 101.95 243.588C101.017 242.468 100.55 240.882 100.55 238.828C100.55 237.335 100.777 235.775 101.23 234.148C101.684 232.522 102.31 231.042 103.11 229.708C104.097 228.135 105.244 226.935 106.55 226.108C107.857 225.255 109.284 224.828 110.83 224.828C111.87 224.828 112.67 225.015 113.23 225.388C113.79 225.735 114.07 226.228 114.07 226.868ZM132.044 219.708C132.044 220.588 131.724 221.335 131.084 221.948C130.471 222.562 129.724 222.868 128.844 222.868C127.964 222.868 127.217 222.562 126.604 221.948C125.991 221.335 125.684 220.588 125.684 219.708C125.684 218.828 125.991 218.082 126.604 217.468C127.217 216.828 127.964 216.508 128.844 216.508C129.724 216.508 130.471 216.828 131.084 217.468C131.724 218.082 132.044 218.828 132.044 219.708ZM121.844 240.468C121.844 240.122 121.871 239.735 121.924 239.308C121.977 238.855 122.057 238.375 122.164 237.868L124.884 225.028H130.644L127.764 238.628C127.711 238.868 127.671 239.095 127.644 239.308C127.617 239.495 127.604 239.695 127.604 239.908C127.604 240.442 127.724 240.828 127.964 241.068C128.231 241.282 128.657 241.388 129.244 241.388C129.991 241.388 130.697 241.068 131.364 240.428C132.031 239.762 132.524 238.908 132.844 237.868H134.524C133.671 240.295 132.524 242.135 131.084 243.388C129.644 244.642 127.991 245.268 126.124 245.268C124.791 245.268 123.737 244.855 122.964 244.028C122.217 243.175 121.844 241.988 121.844 240.468ZM146.453 228.348C146.453 229.255 146.253 229.975 145.853 230.508C145.48 231.015 144.973 231.268 144.333 231.268C144.12 231.268 143.893 231.228 143.653 231.148C143.413 231.068 143.173 230.948 142.933 230.788C143.093 230.362 143.213 229.948 143.293 229.548C143.373 229.148 143.413 228.775 143.413 228.428C143.413 227.895 143.32 227.495 143.133 227.228C142.947 226.935 142.667 226.788 142.293 226.788C141.12 226.788 139.973 228.148 138.853 230.868C137.733 233.562 137.173 236.122 137.173 238.548C137.173 239.775 137.373 240.642 137.773 241.148C138.2 241.655 138.96 241.908 140.053 241.908C141.307 241.908 142.453 241.628 143.493 241.068C144.56 240.482 145.773 239.415 147.133 237.868H148.493C146.947 240.375 145.267 242.242 143.453 243.468C141.64 244.668 139.653 245.268 137.493 245.268C135.44 245.268 133.88 244.735 132.813 243.668C131.773 242.602 131.253 241.015 131.253 238.908C131.253 237.388 131.48 235.775 131.933 234.068C132.413 232.362 133.067 230.842 133.893 229.508C134.88 227.908 136.053 226.708 137.413 225.908C138.8 225.082 140.333 224.668 142.013 224.668C143.48 224.668 144.587 224.988 145.333 225.628C146.08 226.242 146.453 227.148 146.453 228.348ZM160.281 226.868V227.148L160.721 225.028H166.481L163.601 238.628C163.548 238.868 163.508 239.095 163.481 239.308C163.455 239.495 163.441 239.695 163.441 239.908C163.441 240.495 163.575 240.935 163.841 241.228C164.108 241.495 164.521 241.628 165.081 241.628C165.775 241.628 166.401 241.308 166.961 240.668C167.521 240.002 167.975 239.068 168.321 237.868H170.001C169.148 240.322 168.041 242.175 166.681 243.428C165.321 244.655 163.748 245.268 161.961 245.268C160.815 245.268 159.895 244.948 159.201 244.308C158.535 243.668 158.148 242.762 158.041 241.588C157.215 242.815 156.295 243.735 155.281 244.348C154.295 244.962 153.228 245.268 152.081 245.268C150.428 245.268 149.121 244.708 148.161 243.588C147.228 242.468 146.761 240.882 146.761 238.828C146.761 237.335 146.988 235.775 147.441 234.148C147.895 232.522 148.521 231.042 149.321 229.708C150.308 228.135 151.455 226.935 152.761 226.108C154.068 225.255 155.495 224.828 157.041 224.828C158.081 224.828 158.881 225.015 159.441 225.388C160.001 225.735 160.281 226.228 160.281 226.868ZM159.921 228.828C159.921 228.428 159.775 228.082 159.481 227.788C159.188 227.468 158.788 227.308 158.281 227.308C156.815 227.308 155.508 228.535 154.361 230.988C153.241 233.442 152.681 235.868 152.681 238.268C152.681 239.308 152.828 240.095 153.121 240.628C153.415 241.135 153.935 241.388 154.681 241.388C155.375 241.388 156.041 241.055 156.681 240.388C157.348 239.722 157.788 238.882 158.001 237.868L159.921 228.828ZM168.016 240.468C168.016 240.122 168.043 239.735 168.096 239.308C168.149 238.855 168.229 238.375 168.336 237.868L172.616 217.828L178.536 217.028L173.936 238.628C173.883 238.868 173.843 239.095 173.816 239.308C173.789 239.495 173.776 239.695 173.776 239.908C173.776 240.442 173.896 240.828 174.136 241.068C174.403 241.282 174.829 241.388 175.416 241.388C176.163 241.388 176.869 241.068 177.536 240.428C178.203 239.762 178.696 238.908 179.016 237.868H180.696C179.843 240.295 178.696 242.135 177.256 243.388C175.816 244.642 174.163 245.268 172.296 245.268C170.963 245.268 169.909 244.855 169.136 244.028C168.389 243.175 168.016 241.988 168.016 240.468ZM214.072 215.588H219.832L215.632 245.028H209.872L212.432 227.068L204.912 245.028H199.432L200.232 226.988L193.552 245.028H190.352L200.512 217.548C198.459 218.242 196.885 219.362 195.792 220.908C194.699 222.455 194.152 224.335 194.152 226.548C194.152 227.082 194.179 227.548 194.232 227.948C194.312 228.322 194.432 228.668 194.592 228.988C194.645 229.095 194.672 229.175 194.672 229.228C194.699 229.255 194.712 229.282 194.712 229.308C193.272 229.308 192.192 229.015 191.472 228.428C190.779 227.815 190.432 226.895 190.432 225.668C190.432 224.388 190.819 223.095 191.592 221.788C192.392 220.455 193.485 219.242 194.872 218.148C196.125 217.162 197.472 216.402 198.912 215.868C200.352 215.308 201.765 215.028 203.152 215.028C203.659 215.028 204.165 215.082 204.672 215.188C205.205 215.268 205.712 215.402 206.192 215.588L205.272 236.668L214.072 215.588ZM233.836 228.508C233.836 230.722 232.93 232.655 231.116 234.308C229.303 235.935 227.143 236.815 224.636 236.948C224.61 237.402 224.583 237.748 224.556 237.988C224.556 238.202 224.556 238.388 224.556 238.548C224.556 239.775 224.756 240.642 225.156 241.148C225.583 241.655 226.343 241.908 227.436 241.908C228.69 241.908 229.836 241.628 230.876 241.068C231.943 240.482 233.156 239.415 234.516 237.868H235.876C234.33 240.375 232.65 242.242 230.836 243.468C229.023 244.668 227.036 245.268 224.876 245.268C222.823 245.268 221.263 244.735 220.196 243.668C219.156 242.602 218.636 241.015 218.636 238.908C218.636 237.388 218.876 235.775 219.356 234.068C219.836 232.362 220.476 230.842 221.276 229.508C222.263 227.908 223.436 226.708 224.796 225.908C226.183 225.082 227.73 224.668 229.436 224.668C230.903 224.668 231.996 224.988 232.716 225.628C233.463 226.242 233.836 227.202 233.836 228.508ZM229.756 226.788C228.85 226.788 227.93 227.602 226.996 229.228C226.09 230.828 225.41 232.762 224.956 235.028C226.503 234.922 227.85 234.215 228.996 232.908C230.17 231.575 230.756 230.082 230.756 228.428C230.756 227.868 230.676 227.455 230.516 227.188C230.356 226.922 230.103 226.788 229.756 226.788ZM240.142 238.268C240.142 239.308 240.289 240.095 240.582 240.628C240.876 241.135 241.396 241.388 242.142 241.388C242.809 241.388 243.462 241.082 244.102 240.468C244.742 239.828 245.182 239.028 245.422 238.068V237.868L247.382 228.708C247.302 228.282 247.116 227.948 246.822 227.708C246.556 227.442 246.196 227.308 245.742 227.308C244.276 227.308 242.969 228.535 241.822 230.988C240.702 233.442 240.142 235.868 240.142 238.268ZM247.742 226.868V227.028L249.702 217.828L255.622 217.028L251.022 238.628C250.969 238.868 250.929 239.095 250.902 239.308C250.876 239.495 250.862 239.695 250.862 239.908C250.862 240.442 250.982 240.828 251.222 241.068C251.489 241.282 251.916 241.388 252.502 241.388C253.196 241.388 253.822 241.082 254.382 240.468C254.942 239.855 255.396 238.988 255.742 237.868H257.422C256.596 240.242 255.516 242.028 254.182 243.228C252.876 244.428 251.276 245.028 249.382 245.028C248.289 245.028 247.396 244.735 246.702 244.148C246.036 243.535 245.622 242.682 245.462 241.588C244.662 242.815 243.769 243.735 242.782 244.348C241.796 244.962 240.716 245.268 239.542 245.268C237.889 245.268 236.582 244.708 235.622 243.588C234.689 242.468 234.222 240.882 234.222 238.828C234.222 237.335 234.449 235.775 234.902 234.148C235.356 232.522 235.982 231.042 236.782 229.708C237.769 228.135 238.916 226.935 240.222 226.108C241.529 225.255 242.956 224.828 244.502 224.828C245.542 224.828 246.342 225.015 246.902 225.388C247.462 225.735 247.742 226.228 247.742 226.868ZM265.716 219.708C265.716 220.588 265.396 221.335 264.756 221.948C264.143 222.562 263.396 222.868 262.516 222.868C261.636 222.868 260.889 222.562 260.276 221.948C259.663 221.335 259.356 220.588 259.356 219.708C259.356 218.828 259.663 218.082 260.276 217.468C260.889 216.828 261.636 216.508 262.516 216.508C263.396 216.508 264.143 216.828 264.756 217.468C265.396 218.082 265.716 218.828 265.716 219.708ZM255.516 240.468C255.516 240.122 255.543 239.735 255.596 239.308C255.649 238.855 255.729 238.375 255.836 237.868L258.556 225.028H264.316L261.436 238.628C261.383 238.868 261.343 239.095 261.316 239.308C261.289 239.495 261.276 239.695 261.276 239.908C261.276 240.442 261.396 240.828 261.636 241.068C261.903 241.282 262.329 241.388 262.916 241.388C263.663 241.388 264.369 241.068 265.036 240.428C265.703 239.762 266.196 238.908 266.516 237.868H268.196C267.343 240.295 266.196 242.135 264.756 243.388C263.316 244.642 261.663 245.268 259.796 245.268C258.463 245.268 257.409 244.855 256.636 244.028C255.889 243.175 255.516 241.988 255.516 240.468ZM279.5 226.868V227.148L279.94 225.028H285.7L282.82 238.628C282.767 238.868 282.727 239.095 282.7 239.308C282.673 239.495 282.66 239.695 282.66 239.908C282.66 240.495 282.793 240.935 283.06 241.228C283.327 241.495 283.74 241.628 284.3 241.628C284.993 241.628 285.62 241.308 286.18 240.668C286.74 240.002 287.193 239.068 287.54 237.868H289.22C288.367 240.322 287.26 242.175 285.9 243.428C284.54 244.655 282.967 245.268 281.18 245.268C280.033 245.268 279.113 244.948 278.42 244.308C277.753 243.668 277.367 242.762 277.26 241.588C276.433 242.815 275.513 243.735 274.5 244.348C273.513 244.962 272.447 245.268 271.3 245.268C269.647 245.268 268.34 244.708 267.38 243.588C266.447 242.468 265.98 240.882 265.98 238.828C265.98 237.335 266.207 235.775 266.66 234.148C267.113 232.522 267.74 231.042 268.54 229.708C269.527 228.135 270.673 226.935 271.98 226.108C273.287 225.255 274.713 224.828 276.26 224.828C277.3 224.828 278.1 225.015 278.66 225.388C279.22 225.735 279.5 226.228 279.5 226.868ZM279.14 228.828C279.14 228.428 278.993 228.082 278.7 227.788C278.407 227.468 278.007 227.308 277.5 227.308C276.033 227.308 274.727 228.535 273.58 230.988C272.46 233.442 271.9 235.868 271.9 238.268C271.9 239.308 272.047 240.095 272.34 240.628C272.633 241.135 273.153 241.388 273.9 241.388C274.593 241.388 275.26 241.055 275.9 240.388C276.567 239.722 277.007 238.882 277.22 237.868L279.14 228.828Z" fill="url(#paint2_linear_133_494)"/>
<path d="M116.106 9.94043H93V147.753H116.106V9.94043Z" stroke="#8A7C01" stroke-width="7.55906" stroke-linecap="square"/>
<path d="M243 9.94043H219.894V147.753H243V9.94043Z" stroke="#8A7C01" stroke-width="7.55906" stroke-linecap="square"/>
<path d="M116.106 9.94238H219.894" stroke="#8A7C01" stroke-width="7.55906"/>
<path d="M115.622 79.6953H219.41" stroke="#8A7C01" stroke-width="7.55906"/>
<path d="M116.104 147.754H219.891" stroke="#8A7C01" stroke-width="7.55906"/>
<path d="M94.2022 32.2988H114.845" stroke="#8A7C01" stroke-width="17.7638"/>
<path d="M94.3182 55.6768H114.961" stroke="#8A7C01" stroke-width="17.7638"/>
<path d="M93.8766 79.9209H114.52" stroke="#8A7C01" stroke-width="17.7638"/>
<path d="M93.8997 103.749H114.543" stroke="#8A7C01" stroke-width="17.7638"/>
<path d="M94.0156 127.13H114.659" stroke="#8A7C01" stroke-width="17.7638"/>
<path d="M221.123 32.2988H241.766" stroke="#8A7C01" stroke-width="17.7638"/>
<path d="M221.239 55.6768H241.882" stroke="#8A7C01" stroke-width="17.7638"/>
<path d="M220.798 79.9209H241.441" stroke="#8A7C01" stroke-width="17.7638"/>
<path d="M220.821 103.749H241.464" stroke="#8A7C01" stroke-width="17.7638"/>
<path d="M220.937 127.13H241.58" stroke="#8A7C01" stroke-width="17.7638"/>
<g filter="url(#filter1_d_133_494)">
<path d="M188.917 33.1348H150.25C149.583 33.1348 149.042 33.5693 149.042 34.1054V65.1661C149.042 65.7022 149.583 66.1367 150.25 66.1367H188.917C189.584 66.1367 190.125 65.7022 190.125 65.1661V34.1054C190.125 33.5693 189.584 33.1348 188.917 33.1348Z" fill="#5C6F79"/>
<path d="M148.438 35.0762H155.083L158.709 37.0175H192.542V41.1427L146.625 40.9001V39.4441V36.5321C146.625 35.7255 147.435 35.1222 148.438 35.0762Z" fill="#56ECD7" fill-opacity="0.44"/>
<path d="M193.75 39.9297H145.417C144.082 39.9297 143 40.7988 143 41.871V70.9904C143 72.0625 144.082 72.9317 145.417 72.9317H193.75C195.085 72.9317 196.167 72.0625 196.167 70.9904V41.871C196.167 40.7988 195.085 39.9297 193.75 39.9297Z" fill="url(#paint3_radial_133_494)"/>
<path opacity="0.05" fill-rule="evenodd" clip-rule="evenodd" d="M164.75 49.6357V65.1661L179.25 57.4009L164.75 49.6357Z" fill="black"/>
<path fill-rule="evenodd" clip-rule="evenodd" d="M163.542 48.665V64.1954L178.042 56.4302L163.542 48.665Z" fill="#ECF4F5"/>
</g>
<path fill-rule="evenodd" clip-rule="evenodd" d="M163.404 110.423C165.973 113.624 166.518 115.252 166.707 119.545C166.821 122.084 164.502 128.037 163.926 129.771C163.569 130.842 162.926 132.479 164.818 134.322C165.314 134.807 166.252 135.323 167.193 135.323C167.854 135.323 168.557 134.844 169.193 134.52L169.563 134.68V136.947C169.149 136.996 168.831 137.02 168.604 137.02C167.35 137.02 165.461 136.313 164.081 135.311C162.703 134.307 159.987 132.221 160.315 127.848C160.695 122.765 161.773 118.965 158.299 111.975C157.178 109.723 154.265 106.183 153.066 105.409C151.869 104.633 160.072 106.277 163.404 110.423Z" fill="#F0C798"/>
<path d="M159.222 92.7764C160.42 93.8456 161.088 96.4873 160.12 99.4731C159.151 102.461 156.994 104.549 155.278 104.943C154.06 103.926 153.41 101.231 154.379 98.2484C155.347 95.2645 157.566 93.224 159.222 92.7764Z" fill="#71BF44"/>
<path d="M167.868 108.871C167.868 108.871 171.061 104.287 178.867 102.823L184.093 101.876C184.093 101.876 188.119 101.215 190.772 99.8528C190.772 99.8528 188.215 101.675 184.16 102.292C182.173 102.69 174.987 103.581 170.916 106.963C170.916 106.963 166.019 110.113 163.596 115.935L164.277 116.437C164.277 116.437 165.073 113.492 167.156 112.178C168.534 111.311 170.246 111.062 171.871 111.123C174.374 111.294 183.701 111.44 189.956 106.51C196.699 100.532 195.85 94.9854 195.85 94.9854C193.705 97.6045 191.303 97.2001 187.759 97.6632C184.001 97.9987 179.454 97.3175 175.322 99.1112C166.359 103.541 167.465 109.255 167.465 109.255L167.868 108.871Z" fill="#71BF44"/>
</g>
<defs>
<filter id="filter0_d_133_494" x="-4" y="79.1279" width="341" height="298.872" filterUnits="userSpaceOnUse" color-interpolation-filters="sRGB">
<feFlood flood-opacity="0" result="BackgroundImageFix"/>
<feColorMatrix in="SourceAlpha" type="matrix" values="0 0 0 0 0 0 0 0 0 0 0 0 0 0 0 0 0 0 127 0" result="hardAlpha"/>
<feOffset dy="4"/>
<feGaussianBlur stdDeviation="2"/>
<feComposite in2="hardAlpha" operator="out"/>
<feColorMatrix type="matrix" values="0 0 0 0 0 0 0 0 0 0 0 0 0 0 0 0 0 0 0.25 0"/>
<feBlend mode="normal" in2="BackgroundImageFix" result="effect1_dropShadow_133_494"/>
<feBlend mode="normal" in="SourceGraphic" in2="effect1_dropShadow_133_494" result="shape"/>
</filter>
<filter id="filter1_d_133_494" x="139" y="33.1348" width="61.1671" height="47.7969" filterUnits="userSpaceOnUse" color-interpolation-filters="sRGB">
<feFlood flood-opacity="0" result="BackgroundImageFix"/>
<feColorMatrix in="SourceAlpha" type="matrix" values="0 0 0 0 0 0 0 0 0 0 0 0 0 0 0 0 0 0 127 0" result="hardAlpha"/>
<feOffset dy="4"/>
<feGaussianBlur stdDeviation="2"/>
<feComposite in2="hardAlpha" operator="out"/>
<feColorMatrix type="matrix" values="0 0 0 0 0 0 0 0 0 0 0 0 0 0 0 0 0 0 0.25 0"/>
<feBlend mode="normal" in2="BackgroundImageFix" result="effect1_dropShadow_133_494"/>
<feBlend mode="normal" in="SourceGraphic" in2="effect1_dropShadow_133_494" result="shape"/>
</filter>
<linearGradient id="paint0_linear_133_494" x1="166.5" y1="79.1279" x2="166.5" y2="370" gradientUnits="userSpaceOnUse">
<stop stop-color="#FFD482"/>
<stop offset="0.9999" stop-color="#C1A028"/>
<stop offset="1" stop-color="#1F4559" stop-opacity="0"/>
</linearGradient>
<linearGradient id="paint1_linear_133_494" x1="169.5" y1="121.493" x2="169.5" y2="175.613" gradientUnits="userSpaceOnUse">
<stop stop-color="#FFC700"/>
<stop offset="1" stop-color="#CAB054"/>
</linearGradient>
<linearGradient id="paint2_linear_133_494" x1="185.5" y1="204.028" x2="185.5" y2="249.485" gradientUnits="userSpaceOnUse">
<stop stop-color="#EDC847"/>
<stop offset="1" stop-color="#493C0D"/>
</linearGradient>
<radialGradient id="paint3_radial_133_494" cx="0" cy="0" r="1" gradientUnits="userSpaceOnUse" gradientTransform="translate(169.584 56.4307) rotate(90) scale(16.501 26.5835)">
<stop stop-color="#E7B918"/>
<stop offset="1" stop-color="#BEAF79"/>
</radialGradient>
<clipPath id="clip0_133_494">
<rect width="333" height="370" fill="white"/>
</clipPath>
</defs>
</svg>
