<svg width="91" height="90" viewBox="0 0 91 90" fill="none" xmlns="http://www.w3.org/2000/svg">
<path d="M89.9932 44.2235C90.4173 68.5204 70.8369 88.5646 46.2679 88.9934C21.6949 89.4223 1.4309 70.0737 1.0068 45.7768C0.582694 21.4798 20.1591 1.43574 44.7321 1.00682C69.3011 0.577963 89.5691 19.9266 89.9932 44.2235Z" fill="url(#paint0_linear_113_161)"/>
<path d="M7.36512 48.1049L17.5563 47.927L20.6498 27.5778L24.4097 47.8074L28.3738 47.7382L31.3754 62.9142L41.4009 9.08365L42.6575 81.0727L47.7338 47.4002L53.5729 47.2983C53.5729 47.2983 56.7858 38.0508 59.2392 38.0917C61.9209 38.1426 65.1117 47.0969 65.1117 47.0969L79.0373 46.8538" stroke="white" stroke-width="3.73467" stroke-miterlimit="10" stroke-linecap="round" stroke-linejoin="round"/>
<path d="M79.5715 49.9993C77.0908 50.0426 75.0392 48.2851 75.0007 46.08C74.9621 43.8719 76.9512 42.0438 79.4319 42.0005C81.9126 41.9572 83.9608 43.7148 83.9993 45.9229C84.0378 48.128 82.0522 49.956 79.5715 49.9993Z" fill="#F3CC23"/>
<path d="M79.3779 39.0011C75.7933 39.0636 72.9337 42.2573 73.0011 46.1176C73.0684 49.9738 76.0376 53.0615 79.6222 52.9989C83.2068 52.9364 86.0664 49.7469 85.9991 45.8908C85.9317 42.0304 82.9624 38.9385 79.3779 39.0011ZM79.4304 42.0096C81.472 41.974 83.1631 43.7367 83.2016 45.9396C83.24 48.1425 81.6113 49.9548 79.5697 49.9904C77.5241 50.0261 75.8332 48.2718 75.7947 46.0689C75.7563 43.866 77.3848 42.0453 79.4304 42.0096Z" fill="white"/>
<defs>
<linearGradient id="paint0_linear_113_161" x1="44.7321" y1="1.00682" x2="46.2679" y2="88.9934" gradientUnits="userSpaceOnUse">
<stop stop-color="#978B1B" stop-opacity="0.61"/>
<stop offset="1" stop-color="#F7E22B" stop-opacity="0.88"/>
</linearGradient>
</defs>
</svg>
