<?xml version="1.0" encoding="utf-8"?>
<svg id="ICON" xmlns="http://www.w3.org/2000/svg" viewBox="0 0 112 128"><title>watch-fast</title><g id="watch-fast"><path d="M61.06,68.94a2,2,0,0,1-1.42-3.41L75.42,49.75a2,2,0,1,1,2.83,2.83L62.47,68.36A2,2,0,0,1,61.06,68.94ZM57.42,43.41a2,2,0,0,0,0-2.82A2,2,0,0,0,55.61,40a1.58,1.58,0,0,0-.37.11,1.48,1.48,0,0,0-.35.19,1.79,1.79,0,0,0-.31.25,2,2,0,0,0,0,2.82,1.79,1.79,0,0,0,.31.25,1.48,1.48,0,0,0,.35.19,1.58,1.58,0,0,0,.37.11A1.72,1.72,0,0,0,56,44,2,2,0,0,0,57.42,43.41ZM71,48h0a2,2,0,0,0,1.73-1h0A2,2,0,0,0,72,44.28h0a2,2,0,0,0-2.73.73h0A2,2,0,0,0,71,48Zm-7.23-3h0a2,2,0,0,0,1.93-1.49h0a2,2,0,0,0-1.41-2.45h0a2,2,0,0,0-2.45,1.42h0A2,2,0,0,0,63.25,45,2.4,2.4,0,0,0,63.77,45Z" style="fill:#0b9dcc"/><path d="M68,17.3c0-.1,0-.2,0-.3V12h1a3,3,0,0,0,3-3V3a3,3,0,0,0-3-3H43a3,3,0,0,0-3,3V9a3,3,0,0,0,3,3h1v5c0,.1,0,.2,0,.3A56,56,0,1,0,68,17.3ZM44,4H68V8H44Zm4,8H64v4.58a55.46,55.46,0,0,0-16,0Zm46.13,95.3-7-7a2,2,0,1,0-2.83,2.83l7,7A51.76,51.76,0,0,1,58,124V114a2,2,0,0,0-4,0v10a51.76,51.76,0,0,1-33.3-13.82l7-7a2,2,0,1,0-2.83-2.83l-7,7A51.76,51.76,0,0,1,4.05,74H14a2,2,0,0,0,0-4H4.05A51.76,51.76,0,0,1,17.87,36.7l7,7a2,2,0,0,0,1.41.58,2,2,0,0,0,1.42-3.41l-7-7A51.76,51.76,0,0,1,54,20.05V30a2,2,0,0,0,4,0V20.05A51.76,51.76,0,0,1,91.3,33.87l-7,7A2,2,0,0,0,85.7,44.3a2,2,0,0,0,1.41-.58l7-7A51.76,51.76,0,0,1,108,70H98a2,2,0,0,0,0,4h10A51.76,51.76,0,0,1,94.13,107.3ZM56,64a8,8,0,1,0,8,8A8,8,0,0,0,56,64Zm0,12a4,4,0,1,1,4-4A4,4,0,0,1,56,76Z" style="fill:#001b41"/></g></svg>